<mxfile host="app.diagrams.net" modified="2022-06-18T07:55:37.894Z" agent="5.0 (Windows NT 10.0; Win64; x64) AppleWebKit/537.36 (KHTML, like Gecko) Chrome/102.0.0.0 Safari/537.36" etag="bAfitkk5Ign6NuRnJdmY" version="20.0.1" type="github">
  <diagram id="csHI2mM88UKKrCnCFawx" name="Page-1">
    <mxGraphModel dx="1550" dy="844" grid="1" gridSize="10" guides="1" tooltips="1" connect="1" arrows="1" fold="1" page="1" pageScale="1" pageWidth="827" pageHeight="1169" math="0" shadow="0">
      <root>
        <mxCell id="0" />
        <mxCell id="1" parent="0" />
        <mxCell id="eugjiV-Yw9u7wyZHqwBX-2" value="&lt;div style=&quot;text-align: justify;&quot;&gt;&lt;br&gt;&lt;/div&gt;" style="rounded=0;whiteSpace=wrap;html=1;sketch=0;" vertex="1" parent="1">
          <mxGeometry x="160" y="210" width="510" height="300" as="geometry" />
        </mxCell>
        <mxCell id="eugjiV-Yw9u7wyZHqwBX-3" value="raft.Node" style="rounded=0;whiteSpace=wrap;html=1;" vertex="1" parent="1">
          <mxGeometry x="220" y="440" width="120" height="60" as="geometry" />
        </mxCell>
        <mxCell id="eugjiV-Yw9u7wyZHqwBX-4" value="raftHttp.Trasnport" style="rounded=0;whiteSpace=wrap;html=1;" vertex="1" parent="1">
          <mxGeometry x="490" y="440" width="120" height="60" as="geometry" />
        </mxCell>
        <mxCell id="eugjiV-Yw9u7wyZHqwBX-5" value="RaftNode" style="text;html=1;strokeColor=none;fillColor=none;align=center;verticalAlign=middle;whiteSpace=wrap;rounded=0;" vertex="1" parent="1">
          <mxGeometry x="370" y="260" width="60" height="30" as="geometry" />
        </mxCell>
        <mxCell id="eugjiV-Yw9u7wyZHqwBX-6" value="ServeHTTPKV" style="rounded=1;whiteSpace=wrap;html=1;" vertex="1" parent="1">
          <mxGeometry x="350" y="170" width="120" height="60" as="geometry" />
        </mxCell>
        <mxCell id="eugjiV-Yw9u7wyZHqwBX-10" value="" style="endArrow=none;html=1;rounded=0;entryX=1;entryY=0.5;entryDx=0;entryDy=0;startArrow=none;" edge="1" parent="1" target="eugjiV-Yw9u7wyZHqwBX-2">
          <mxGeometry width="50" height="50" relative="1" as="geometry">
            <mxPoint x="160" y="360" as="sourcePoint" />
            <mxPoint x="60" y="530" as="targetPoint" />
          </mxGeometry>
        </mxCell>
        <mxCell id="eugjiV-Yw9u7wyZHqwBX-15" value="" style="endArrow=none;html=1;rounded=0;entryX=0.5;entryY=0;entryDx=0;entryDy=0;exitX=0.5;exitY=1;exitDx=0;exitDy=0;edgeStyle=orthogonalEdgeStyle;curved=1;" edge="1" parent="1" source="eugjiV-Yw9u7wyZHqwBX-6" target="eugjiV-Yw9u7wyZHqwBX-14">
          <mxGeometry width="50" height="50" relative="1" as="geometry">
            <mxPoint x="360" y="230" as="sourcePoint" />
            <mxPoint x="250" y="350" as="targetPoint" />
            <Array as="points">
              <mxPoint x="360" y="250" />
              <mxPoint x="250" y="250" />
            </Array>
          </mxGeometry>
        </mxCell>
        <mxCell id="eugjiV-Yw9u7wyZHqwBX-17" value="Propose" style="edgeLabel;html=1;align=center;verticalAlign=middle;resizable=0;points=[];" vertex="1" connectable="0" parent="eugjiV-Yw9u7wyZHqwBX-15">
          <mxGeometry x="-0.002" relative="1" as="geometry">
            <mxPoint as="offset" />
          </mxGeometry>
        </mxCell>
        <mxCell id="eugjiV-Yw9u7wyZHqwBX-14" value="proposeC" style="rounded=0;whiteSpace=wrap;html=1;labelBackgroundColor=none;sketch=1;shadow=0;glass=0;" vertex="1" parent="1">
          <mxGeometry x="220" y="360" width="120" height="60" as="geometry" />
        </mxCell>
        <mxCell id="eugjiV-Yw9u7wyZHqwBX-19" style="edgeStyle=orthogonalEdgeStyle;curved=1;rounded=0;orthogonalLoop=1;jettySize=auto;html=1;exitX=0.5;exitY=1;exitDx=0;exitDy=0;" edge="1" parent="1" source="eugjiV-Yw9u7wyZHqwBX-14" target="eugjiV-Yw9u7wyZHqwBX-14">
          <mxGeometry relative="1" as="geometry" />
        </mxCell>
      </root>
    </mxGraphModel>
  </diagram>
</mxfile>
